<?xml version="1.0" encoding="UTF-8" standalone="no"?><svg xmlns="http://www.w3.org/2000/svg" xmlns:xlink="http://www.w3.org/1999/xlink" contentScriptType="application/ecmascript" contentStyleType="text/css" height="933px" preserveAspectRatio="none" style="width:631px;height:933px;" version="1.1" viewBox="0 0 631 933" width="631px" zoomAndPan="magnify"><defs><filter height="300%" id="f1rslkfo33tfkg" width="300%" x="-1" y="-1"><feGaussianBlur result="blurOut" stdDeviation="2.0"/><feColorMatrix in="blurOut" result="blurOut2" type="matrix" values="0 0 0 0 0 0 0 0 0 0 0 0 0 0 0 0 0 0 .4 0"/><feOffset dx="4.0" dy="4.0" in="blurOut2" result="blurOut3"/><feBlend in="SourceGraphic" in2="blurOut3" mode="normal"/></filter></defs><g><!--MD5=[3fd616f346a44cd59a91eb10b19e157c]
class User--><rect codeLine="2" fill="#FEFECE" filter="url(#f1rslkfo33tfkg)" height="48" id="User" style="stroke:#A80036;stroke-width:1.5;" width="58" x="314.47" y="7"/><ellipse cx="329.47" cy="23" fill="#ADD1B2" rx="11" ry="11" style="stroke:#A80036;stroke-width:1.0;"/><path d="M331.9431,29.1431 Q331.3621,29.4419 330.7229,29.5913 Q330.0838,29.7407 329.3782,29.7407 Q326.8714,29.7407 325.5515,28.0889 Q324.2317,26.437 324.2317,23.3159 Q324.2317,20.1865 325.5515,18.5347 Q326.8714,16.8828 329.3782,16.8828 Q330.0838,16.8828 330.7312,17.0322 Q331.3787,17.1816 331.9431,17.4805 L331.9431,20.2031 Q331.3123,19.6221 330.7188,19.3523 Q330.1253,19.0825 329.4944,19.0825 Q328.1497,19.0825 327.4649,20.1492 Q326.7801,21.2158 326.7801,23.3159 Q326.7801,25.4077 327.4649,26.4744 Q328.1497,27.541 329.4944,27.541 Q330.1253,27.541 330.7188,27.2712 Q331.3123,27.0015 331.9431,26.4204 Z " fill="#000000"/><text fill="#000000" font-family="sans-serif" font-size="12" lengthAdjust="spacing" textLength="26" x="343.47" y="27.5352">User</text><line style="stroke:#A80036;stroke-width:1.5;" x1="315.47" x2="371.47" y1="39" y2="39"/><line style="stroke:#A80036;stroke-width:1.5;" x1="315.47" x2="371.47" y1="47" y2="47"/><!--MD5=[db6d18d8099558415abc41d00477ab92]
class Admin--><rect codeLine="6" fill="#FEFECE" filter="url(#f1rslkfo33tfkg)" height="48" id="Admin" style="stroke:#A80036;stroke-width:1.5;" width="69" x="165.97" y="225"/><ellipse cx="180.97" cy="241" fill="#ADD1B2" rx="11" ry="11" style="stroke:#A80036;stroke-width:1.0;"/><path d="M183.4431,247.1431 Q182.8621,247.4419 182.2229,247.5913 Q181.5838,247.7407 180.8782,247.7407 Q178.3714,247.7407 177.0515,246.0889 Q175.7317,244.437 175.7317,241.3159 Q175.7317,238.1865 177.0515,236.5347 Q178.3714,234.8828 180.8782,234.8828 Q181.5838,234.8828 182.2312,235.0322 Q182.8787,235.1816 183.4431,235.4805 L183.4431,238.2031 Q182.8123,237.6221 182.2188,237.3523 Q181.6253,237.0825 180.9944,237.0825 Q179.6497,237.0825 178.9649,238.1492 Q178.2801,239.2158 178.2801,241.3159 Q178.2801,243.4077 178.9649,244.4744 Q179.6497,245.541 180.9944,245.541 Q181.6253,245.541 182.2188,245.2712 Q182.8123,245.0015 183.4431,244.4204 Z " fill="#000000"/><text fill="#000000" font-family="sans-serif" font-size="12" lengthAdjust="spacing" textLength="37" x="194.97" y="245.5352">Admin</text><line style="stroke:#A80036;stroke-width:1.5;" x1="166.97" x2="233.97" y1="257" y2="257"/><line style="stroke:#A80036;stroke-width:1.5;" x1="166.97" x2="233.97" y1="265" y2="265"/><!--MD5=[3833dfc58284d688f88001bd4346281f]
class Public--><rect codeLine="11" fill="#FEFECE" filter="url(#f1rslkfo33tfkg)" height="48" id="Public" style="stroke:#A80036;stroke-width:1.5;" width="66" x="447.47" y="116"/><ellipse cx="462.47" cy="132" fill="#ADD1B2" rx="11" ry="11" style="stroke:#A80036;stroke-width:1.0;"/><path d="M464.9431,138.1431 Q464.3621,138.4419 463.7229,138.5913 Q463.0838,138.7407 462.3782,138.7407 Q459.8714,138.7407 458.5515,137.0889 Q457.2317,135.437 457.2317,132.3159 Q457.2317,129.1865 458.5515,127.5347 Q459.8714,125.8828 462.3782,125.8828 Q463.0838,125.8828 463.7312,126.0322 Q464.3787,126.1816 464.9431,126.4805 L464.9431,129.2031 Q464.3123,128.6221 463.7188,128.3523 Q463.1253,128.0825 462.4944,128.0825 Q461.1497,128.0825 460.4649,129.1492 Q459.7801,130.2158 459.7801,132.3159 Q459.7801,134.4077 460.4649,135.4744 Q461.1497,136.541 462.4944,136.541 Q463.1253,136.541 463.7188,136.2712 Q464.3123,136.0015 464.9431,135.4204 Z " fill="#000000"/><text fill="#000000" font-family="sans-serif" font-size="12" lengthAdjust="spacing" textLength="34" x="476.47" y="136.5352">Public</text><line style="stroke:#A80036;stroke-width:1.5;" x1="448.47" x2="512.47" y1="148" y2="148"/><line style="stroke:#A80036;stroke-width:1.5;" x1="448.47" x2="512.47" y1="156" y2="156"/><!--MD5=[d024bddb254d47e78f99ea0a4101978b]
class Raffle--><rect codeLine="15" fill="#FEFECE" filter="url(#f1rslkfo33tfkg)" height="99.8203" id="Raffle" style="stroke:#A80036;stroke-width:1.5;" width="73" x="265.97" y="479"/><ellipse cx="284.57" cy="495" fill="#ADD1B2" rx="11" ry="11" style="stroke:#A80036;stroke-width:1.0;"/><path d="M287.0431,501.1431 Q286.4621,501.4419 285.8229,501.5913 Q285.1838,501.7407 284.4782,501.7407 Q281.9714,501.7407 280.6515,500.0889 Q279.3317,498.437 279.3317,495.3159 Q279.3317,492.1865 280.6515,490.5347 Q281.9714,488.8828 284.4782,488.8828 Q285.1838,488.8828 285.8312,489.0322 Q286.4787,489.1816 287.0431,489.4805 L287.0431,492.2031 Q286.4123,491.6221 285.8188,491.3523 Q285.2253,491.0825 284.5944,491.0825 Q283.2497,491.0825 282.5649,492.1492 Q281.8801,493.2158 281.8801,495.3159 Q281.8801,497.4077 282.5649,498.4744 Q283.2497,499.541 284.5944,499.541 Q285.2253,499.541 285.8188,499.2712 Q286.4123,499.0015 287.0431,498.4204 Z " fill="#000000"/><text fill="#000000" font-family="sans-serif" font-size="12" lengthAdjust="spacing" textLength="33" x="299.37" y="499.5352">Raffle</text><line style="stroke:#A80036;stroke-width:1.5;" x1="266.97" x2="337.97" y1="511" y2="511"/><text fill="#000000" font-family="sans-serif" font-size="11" lengthAdjust="spacing" textLength="20" x="271.97" y="525.6348">title</text><text fill="#000000" font-family="sans-serif" font-size="11" lengthAdjust="spacing" textLength="61" x="271.97" y="538.5898">description</text><text fill="#000000" font-family="sans-serif" font-size="11" lengthAdjust="spacing" textLength="38" x="271.97" y="551.5449">images</text><text fill="#000000" font-family="sans-serif" font-size="11" lengthAdjust="spacing" textLength="27" x="271.97" y="564.5">price</text><line style="stroke:#A80036;stroke-width:1.5;" x1="266.97" x2="337.97" y1="570.8203" y2="570.8203"/><!--MD5=[435987a092acd998883c72f97c5c9408]
class Number--><rect codeLine="23" fill="#FEFECE" filter="url(#f1rslkfo33tfkg)" height="60.9551" id="Number" style="stroke:#A80036;stroke-width:1.5;" width="79" x="188.97" y="679"/><ellipse cx="203.97" cy="695" fill="#ADD1B2" rx="11" ry="11" style="stroke:#A80036;stroke-width:1.0;"/><path d="M206.4431,701.1431 Q205.8621,701.4419 205.2229,701.5913 Q204.5838,701.7407 203.8782,701.7407 Q201.3714,701.7407 200.0515,700.0889 Q198.7317,698.437 198.7317,695.3159 Q198.7317,692.1865 200.0515,690.5347 Q201.3714,688.8828 203.8782,688.8828 Q204.5838,688.8828 205.2312,689.0322 Q205.8787,689.1816 206.4431,689.4805 L206.4431,692.2031 Q205.8123,691.6221 205.2188,691.3523 Q204.6253,691.0825 203.9944,691.0825 Q202.6497,691.0825 201.9649,692.1492 Q201.2801,693.2158 201.2801,695.3159 Q201.2801,697.4077 201.9649,698.4744 Q202.6497,699.541 203.9944,699.541 Q204.6253,699.541 205.2188,699.2712 Q205.8123,699.0015 206.4431,698.4204 Z " fill="#000000"/><text fill="#000000" font-family="sans-serif" font-size="12" lengthAdjust="spacing" textLength="47" x="217.97" y="699.5352">Number</text><line style="stroke:#A80036;stroke-width:1.5;" x1="189.97" x2="266.97" y1="711" y2="711"/><text fill="#000000" font-family="sans-serif" font-size="11" lengthAdjust="spacing" textLength="28" x="194.97" y="725.6348">value</text><line style="stroke:#A80036;stroke-width:1.5;" x1="189.97" x2="266.97" y1="731.9551" y2="731.9551"/><!--MD5=[63ed6a0a2dfd613875880437a5e2b06e]
class Wheel--><rect codeLine="43" fill="#FEFECE" filter="url(#f1rslkfo33tfkg)" height="48" id="Wheel" style="stroke:#A80036;stroke-width:1.5;" width="66" x="115.47" y="334"/><ellipse cx="130.47" cy="350" fill="#ADD1B2" rx="11" ry="11" style="stroke:#A80036;stroke-width:1.0;"/><path d="M132.9431,356.1431 Q132.3621,356.4419 131.7229,356.5913 Q131.0838,356.7407 130.3782,356.7407 Q127.8714,356.7407 126.5515,355.0889 Q125.2317,353.437 125.2317,350.3159 Q125.2317,347.1865 126.5515,345.5347 Q127.8714,343.8828 130.3782,343.8828 Q131.0838,343.8828 131.7312,344.0322 Q132.3787,344.1816 132.9431,344.4805 L132.9431,347.2031 Q132.3123,346.6221 131.7188,346.3523 Q131.1253,346.0825 130.4944,346.0825 Q129.1497,346.0825 128.4649,347.1492 Q127.7801,348.2158 127.7801,350.3159 Q127.7801,352.4077 128.4649,353.4744 Q129.1497,354.541 130.4944,354.541 Q131.1253,354.541 131.7188,354.2712 Q132.3123,354.0015 132.9431,353.4204 Z " fill="#000000"/><text fill="#000000" font-family="sans-serif" font-size="12" lengthAdjust="spacing" textLength="34" x="144.47" y="354.5352">Wheel</text><line style="stroke:#A80036;stroke-width:1.5;" x1="116.47" x2="180.47" y1="366" y2="366"/><line style="stroke:#A80036;stroke-width:1.5;" x1="116.47" x2="180.47" y1="374" y2="374"/><!--MD5=[7bff1aba3b0d0725284345139f4478e9]
class History--><rect codeLine="40" fill="#FEFECE" filter="url(#f1rslkfo33tfkg)" height="48" id="History" style="stroke:#A80036;stroke-width:1.5;" width="72" x="444.47" y="334"/><ellipse cx="459.47" cy="350" fill="#ADD1B2" rx="11" ry="11" style="stroke:#A80036;stroke-width:1.0;"/><path d="M461.9431,356.1431 Q461.3621,356.4419 460.7229,356.5913 Q460.0838,356.7407 459.3782,356.7407 Q456.8714,356.7407 455.5515,355.0889 Q454.2317,353.437 454.2317,350.3159 Q454.2317,347.1865 455.5515,345.5347 Q456.8714,343.8828 459.3782,343.8828 Q460.0838,343.8828 460.7312,344.0322 Q461.3787,344.1816 461.9431,344.4805 L461.9431,347.2031 Q461.3123,346.6221 460.7188,346.3523 Q460.1253,346.0825 459.4944,346.0825 Q458.1497,346.0825 457.4649,347.1492 Q456.7801,348.2158 456.7801,350.3159 Q456.7801,352.4077 457.4649,353.4744 Q458.1497,354.541 459.4944,354.541 Q460.1253,354.541 460.7188,354.2712 Q461.3123,354.0015 461.9431,353.4204 Z " fill="#000000"/><text fill="#000000" font-family="sans-serif" font-size="12" lengthAdjust="spacing" textLength="40" x="473.47" y="354.5352">History</text><line style="stroke:#A80036;stroke-width:1.5;" x1="445.47" x2="515.47" y1="366" y2="366"/><line style="stroke:#A80036;stroke-width:1.5;" x1="445.47" x2="515.47" y1="374" y2="374"/><!--MD5=[0f245dca8b67f5d9cfc898b32223c5f7]
class Payer--><rect codeLine="26" fill="#FEFECE" filter="url(#f1rslkfo33tfkg)" height="86.8652" id="Payer" style="stroke:#A80036;stroke-width:1.5;" width="64" x="142.47" y="826.48"/><ellipse cx="157.47" cy="842.48" fill="#ADD1B2" rx="11" ry="11" style="stroke:#A80036;stroke-width:1.0;"/><path d="M159.9431,848.6231 Q159.3621,848.9219 158.7229,849.0713 Q158.0838,849.2207 157.3782,849.2207 Q154.8714,849.2207 153.5515,847.5689 Q152.2317,845.917 152.2317,842.7959 Q152.2317,839.6665 153.5515,838.0147 Q154.8714,836.3628 157.3782,836.3628 Q158.0838,836.3628 158.7312,836.5122 Q159.3787,836.6616 159.9431,836.9605 L159.9431,839.6831 Q159.3123,839.1021 158.7188,838.8323 Q158.1253,838.5625 157.4944,838.5625 Q156.1497,838.5625 155.4649,839.6292 Q154.7801,840.6958 154.7801,842.7959 Q154.7801,844.8877 155.4649,845.9544 Q156.1497,847.021 157.4944,847.021 Q158.1253,847.021 158.7188,846.7512 Q159.3123,846.4815 159.9431,845.9004 Z " fill="#000000"/><text fill="#000000" font-family="sans-serif" font-size="12" lengthAdjust="spacing" textLength="32" x="171.47" y="847.0152">Payer</text><line style="stroke:#A80036;stroke-width:1.5;" x1="143.47" x2="205.47" y1="858.48" y2="858.48"/><text fill="#000000" font-family="sans-serif" font-size="11" lengthAdjust="spacing" textLength="29" x="148.47" y="873.1148">name</text><text fill="#000000" font-family="sans-serif" font-size="11" lengthAdjust="spacing" textLength="34" x="148.47" y="886.0698">phone</text><text fill="#000000" font-family="sans-serif" font-size="11" lengthAdjust="spacing" textLength="44" x="148.47" y="899.0249">voucher</text><line style="stroke:#A80036;stroke-width:1.5;" x1="143.47" x2="205.47" y1="905.3452" y2="905.3452"/><!--MD5=[60d6b92408f98aed8df94d5c6e04aa63]
class State--><rect codeLine="31" fill="#FEFECE" filter="url(#f1rslkfo33tfkg)" height="99.8203" id="State" style="stroke:#A80036;stroke-width:1.5;" width="83" x="241.97" y="820"/><ellipse cx="267.32" cy="836" fill="#EB937F" rx="11" ry="11" style="stroke:#A80036;stroke-width:1.0;"/><path d="M270.9343,842.5 L263.2145,842.5 L263.2145,830.1069 L270.9343,830.1069 L270.9343,832.2651 L265.6633,832.2651 L265.6633,834.938 L270.4362,834.938 L270.4362,837.0962 L265.6633,837.0962 L265.6633,840.3418 L270.9343,840.3418 Z " fill="#000000"/><text fill="#000000" font-family="sans-serif" font-size="12" lengthAdjust="spacing" textLength="28" x="283.62" y="840.5352">State</text><line style="stroke:#A80036;stroke-width:1.5;" x1="242.97" x2="323.97" y1="852" y2="852"/><text fill="#000000" font-family="sans-serif" font-size="11" lengthAdjust="spacing" textLength="48" x="247.97" y="866.6348">Available</text><text fill="#000000" font-family="sans-serif" font-size="11" lengthAdjust="spacing" textLength="55" x="247.97" y="879.5898">InPayment</text><text fill="#000000" font-family="sans-serif" font-size="11" lengthAdjust="spacing" textLength="71" x="247.97" y="892.5449">InVerification</text><text fill="#000000" font-family="sans-serif" font-size="11" lengthAdjust="spacing" textLength="56" x="247.97" y="905.5">Purchased</text><line style="stroke:#A80036;stroke-width:1.5;" x1="242.97" x2="323.97" y1="911.8203" y2="911.8203"/><!--MD5=[933987b91d2b08b1b4941f3221fa6cec]
reverse link User to Admin--><path codeLine="3" d="M316.39,72.9 C286.64,117.83 239.91,188.42 215.88,224.72 " fill="none" id="User-backto-Admin" style="stroke:#A80036;stroke-width:1.0;"/><polygon fill="none" points="310.45,69.19,327.33,56.38,322.12,76.92,310.45,69.19" style="stroke:#A80036;stroke-width:1.0;"/><!--MD5=[c12556735987eb7e52a64bda8a4692a9]
reverse link User to Public--><path codeLine="4" d="M389.61,68.04 C409.77,83.78 432.81,101.78 450.65,115.71 " fill="none" id="User-backto-Public" style="stroke:#A80036;stroke-width:1.0;"/><polygon fill="none" points="385.5,73.71,374.05,55.89,394.12,62.68,385.5,73.71" style="stroke:#A80036;stroke-width:1.0;"/><!--MD5=[05c7fab73679fd2a60875d443353a983]
link Admin to Raffle--><path codeLine="7" d="M208.99,273.18 C225.06,316.91 260.24,412.61 282.56,473.34 " fill="none" id="Admin-to-Raffle" style="stroke:#A80036;stroke-width:1.0;"/><polygon fill="#A80036" points="284.16,477.69,284.8076,467.8625,282.4341,472.9973,277.2993,470.6239,284.16,477.69" style="stroke:#A80036;stroke-width:1.0;"/><polygon fill="#000000" points="255.645,362.8483,255.283,353.3446,249.766,355.3724,255.645,362.8483" style="stroke:#000000;stroke-width:1.0;"/><text fill="#000000" font-family="sans-serif" font-size="13" lengthAdjust="spacing" textLength="143" x="262.92" y="363.0684">(create, delete, update)</text><!--MD5=[62f52506f3bd6f9d28b44a2b9ad094fe]
link Admin to Number--><path codeLine="8" d="M165.71,264.81 C109.22,291.39 6,351.68 29.47,429 C61.26,533.75 150.16,632.06 197.64,679.06 " fill="none" id="Admin-Number" style="stroke:#A80036;stroke-width:1.0;"/><polygon fill="#000000" points="34.8543,425.6405,37.0894,416.3963,31.2289,416.848,34.8543,425.6405" style="stroke:#000000;stroke-width:1.0;"/><text fill="#000000" font-family="sans-serif" font-size="13" lengthAdjust="spacing" textLength="96" x="43.47" y="425.5684">(verify, decline)</text><!--MD5=[c0b1cacc981e1d0f62e3517d92fb46f7]
link Admin to Wheel--><path codeLine="9" d="M189.06,273.48 C181.27,289.51 170.89,310.85 162.58,327.95 " fill="none" id="Admin-to-Wheel" style="stroke:#A80036;stroke-width:1.0;stroke-dasharray:7.0,7.0;"/><polygon fill="#A80036" points="160.51,332.21,168.0481,325.8715,162.7001,327.7152,160.8564,322.3672,160.51,332.21" style="stroke:#A80036;stroke-width:1.0;"/><!--MD5=[56649eeaa8777b3c598cd987244af567]
link Public to Number--><path codeLine="12" d="M525.2999,163.9939 C525.2999,163.9939 586.47,211.28 586.47,248 C586.47,248 586.47,248 586.47,529.5 C586.47,663.9 381.88,697.11 282.03,705.31 " fill="none" id="Public-Number" style="stroke:#A80036;stroke-width:1.0;"/><polygon fill="#A80036" points="269.31,706.25,278.58,709.5769,274.2964,705.8821,277.9912,701.5985,269.31,706.25" style="stroke:#A80036;stroke-width:1.0;"/><line style="stroke:#A80036;stroke-width:1.0;" x1="274.2964" x2="282.275" y1="705.8821" y2="705.29"/><polygon fill="#FFFFFF" points="515.01,157.82,518.097,164.3369,525.2999,163.9939,522.2129,157.477,515.01,157.82" style="stroke:#A80036;stroke-width:1.0;"/><polygon fill="#000000" points="589.4204,362.7159,595.8088,355.6704,590.4475,353.2609,589.4204,362.7159" style="stroke:#000000;stroke-width:1.0;"/><text fill="#000000" font-family="sans-serif" font-size="13" lengthAdjust="spacing" textLength="23" x="600.47" y="363.0684">buy</text><text fill="#000000" font-family="sans-serif" font-size="13" lengthAdjust="spacing" textLength="6" x="276.1049" y="699.8228">*</text><!--MD5=[e75fd197b67c696e32e19ab6fdb3158d]
link Public to History--><path codeLine="13" d="M480.47,164.12 C480.47,205.58 480.47,292.14 480.47,333.72 " fill="none" id="Public-History" style="stroke:#A80036;stroke-width:1.0;stroke-dasharray:7.0,7.0;"/><polygon fill="#000000" points="485.47,254.1553,488.4089,245.1102,482.5311,245.1102,485.47,254.1553" style="stroke:#000000;stroke-width:1.0;"/><text fill="#000000" font-family="sans-serif" font-size="13" lengthAdjust="spacing" textLength="28" x="494.47" y="254.0684">view</text><!--MD5=[90a2235e8c5be1dd048925e1bfa2cb96]
link Raffle to Number--><path codeLine="21" d="M277.2718,590.2882 C277.2718,590.2882 255.09,643.77 245.84,666.09 " fill="none" id="Raffle-Number" style="stroke:#A80036;stroke-width:1.0;"/><polygon fill="#A80036" points="240.99,677.79,248.1341,671.0105,242.9064,673.1719,240.7451,667.9442,240.99,677.79" style="stroke:#A80036;stroke-width:1.0;"/><line style="stroke:#A80036;stroke-width:1.0;" x1="242.9064" x2="245.965" y1="673.1719" y2="665.785"/><polygon fill="#FFFFFF" points="281.86,579.2,275.8698,583.2147,277.2718,590.2882,283.262,586.2735,281.86,579.2" style="stroke:#A80036;stroke-width:1.0;"/><text fill="#000000" font-family="sans-serif" font-size="13" lengthAdjust="spacing" textLength="24" x="216.3961" y="668.0559">2..n</text><!--MD5=[24fa226afca2645259fdd075a0bed400]
link Number to State--><path codeLine="37" d="M242.8489,751.5486 C242.8489,751.5486 255.52,788.16 261.78,806.24 " fill="none" id="Number-State" style="stroke:#A80036;stroke-width:1.0;"/><polygon fill="#A80036" points="265.96,818.32,266.7928,808.5064,264.3229,813.5956,259.2338,811.1257,265.96,818.32" style="stroke:#A80036;stroke-width:1.0;"/><line style="stroke:#A80036;stroke-width:1.0;" x1="264.3229" x2="261.71" y1="813.5956" y2="806.04"/><polygon fill="#A80036" points="238.92,740.21,237.1049,747.1889,242.8489,751.5486,244.664,744.5696,238.92,740.21" style="stroke:#A80036;stroke-width:1.0;"/><!--MD5=[a0ec049a63ef2acfbc35c30f2ee57f43]
link Number to Payer--><path codeLine="38" d="M214.3381,751.5716 C214.3381,751.5716 200.35,792.73 193.6,812.6 " fill="none" id="Number-Payer" style="stroke:#A80036;stroke-width:1.0;"/><polygon fill="#A80036" points="189.44,824.84,196.1262,817.6085,191.0508,820.1066,188.5527,815.0312,189.44,824.84" style="stroke:#A80036;stroke-width:1.0;"/><line style="stroke:#A80036;stroke-width:1.0;" x1="191.0508" x2="193.625" y1="820.1066" y2="812.535"/><polygon fill="#A80036" points="218.2,740.21,212.4819,744.6035,214.3381,751.5716,220.0563,747.1781,218.2,740.21" style="stroke:#A80036;stroke-width:1.0;"/><!--MD5=[8f71f6dec800fa53ed41c4a7613c8919]
link History to Raffle--><path codeLine="41" d="M445.9006,391.7145 C445.9006,391.7145 379.18,454.88 349,483.45 " fill="none" id="History-Raffle" style="stroke:#A80036;stroke-width:1.0;"/><polygon fill="#A80036" points="339.82,492.14,349.1077,488.8631,343.4531,488.7048,343.6114,483.0501,339.82,492.14" style="stroke:#A80036;stroke-width:1.0;"/><line style="stroke:#A80036;stroke-width:1.0;" x1="343.4531" x2="349.255" y1="488.7048" y2="483.205"/><polygon fill="#FFFFFF" points="454.62,383.47,447.5121,384.6858,445.9006,391.7145,453.0085,390.4987,454.62,383.47" style="stroke:#A80036;stroke-width:1.0;"/><text fill="#000000" font-family="sans-serif" font-size="13" lengthAdjust="spacing" textLength="6" x="347.2669" y="471.9175">*</text><!--MD5=[b54a6892f453d37cb490dae37990e634]
link Wheel to Raffle--><path codeLine="44" d="M169.88,382.43 C193.59,408.37 232.36,450.79 261.86,483.07 " fill="none" id="Wheel-to-Raffle" style="stroke:#A80036;stroke-width:1.0;"/><polygon fill="#A80036" points="265.13,486.64,262.0249,477.2934,261.7624,482.9442,256.1116,482.6816,265.13,486.64" style="stroke:#A80036;stroke-width:1.0;"/><!--MD5=[ffeb4f41a1341efb5f7c6d9d62d800ab]
link Wheel to Number--><path codeLine="45" d="M147.99,382.28 C147.7,425.65 149.98,521.37 172.47,598 C181.04,627.2 197.33,657.85 210.14,679.36 " fill="none" id="Wheel-Number" style="stroke:#A80036;stroke-width:1.0;"/><polygon fill="#000000" points="178.4938,533.5493,179.5183,524.0941,173.765,525.2977,178.4938,533.5493" style="stroke:#000000;stroke-width:1.0;"/><text fill="#000000" font-family="sans-serif" font-size="13" lengthAdjust="spacing" textLength="37" x="186.47" y="533.5684">select</text><!--MD5=[dfeeae8c8145d0bd92d55a988524b56a]
@startuml DomainModel

class User {}
User <|-down- Admin
User <|-down- Public

class Admin {}
Admin -down-> Raffle : "(create, delete, update) >"
Admin -down- Number: "(verify, decline) >"
Admin ..> Wheel 

class Public {}
Public o-down-> "*" Number : "buy >"
Public ... History : "view >"

class Raffle {
    title
    description
    images
    price
}
Raffle o-down-> "2..n" Number

class Number {
    value
}
class Payer {
    name
    phone 
    voucher
}
enum State {
    Available
    InPayment
    InVerification
    Purchased
}
Number *-down-> State 
Number *-down-> Payer 

class History {}
History o-down-> "*" Raffle

class Wheel {}
Wheel -down-> Raffle
Wheel -down-  Number : "select >" 

@enduml

PlantUML version 1.2021.00(Sun Jan 10 06:25:05 VET 2021)
(MIT source distribution)
Java Runtime: Java(TM) SE Runtime Environment
JVM: Java HotSpot(TM) 64-Bit Server VM
Default Encoding: UTF-8
Language: es
Country: VE
--></g></svg>