<svg width="25" height="25" viewBox="0 0 25 25" fill="none" xmlns="http://www.w3.org/2000/svg">
<path d="M10.6958 21.875C10.8787 22.1917 11.1417 22.4546 11.4584 22.6375C11.775 22.8203 12.1343 22.9166 12.5 22.9166C12.8657 22.9166 13.2249 22.8203 13.5416 22.6375C13.8583 22.4546 14.1213 22.1917 14.3041 21.875M3.39789 15.9646C3.26181 16.1137 3.17201 16.2992 3.1394 16.4985C3.1068 16.6977 3.1328 16.9021 3.21425 17.0869C3.29569 17.2716 3.42907 17.4287 3.59815 17.539C3.76724 17.6494 3.96474 17.7082 4.16664 17.7083H20.8333C21.0352 17.7084 21.2327 17.6498 21.4019 17.5397C21.5711 17.4296 21.7047 17.2726 21.7863 17.088C21.868 16.9034 21.8942 16.699 21.8619 16.4998C21.8295 16.3005 21.74 16.1149 21.6041 15.9656C20.2187 14.5375 18.75 13.0198 18.75 8.33333C18.75 6.67573 18.0915 5.08601 16.9194 3.91391C15.7473 2.74181 14.1576 2.08333 12.5 2.08333C10.8424 2.08333 9.25266 2.74181 8.08055 3.91391C6.90845 5.08601 6.24997 6.67573 6.24997 8.33333C6.24997 13.0198 4.78018 14.5375 3.39789 15.9646Z" stroke="#212427" stroke-width="2" stroke-linecap="round" stroke-linejoin="round"/>
</svg>
