<?xml version="1.0" encoding="UTF-8" standalone="no"?><svg xmlns="http://www.w3.org/2000/svg" xmlns:xlink="http://www.w3.org/1999/xlink" contentScriptType="application/ecmascript" contentStyleType="text/css" height="732px" preserveAspectRatio="none" style="width:516px;height:732px;" version="1.1" viewBox="0 0 516 732" width="516px" zoomAndPan="magnify"><defs><filter height="300%" id="f18wdm83yxxzv7" width="300%" x="-1" y="-1"><feGaussianBlur result="blurOut" stdDeviation="2.0"/><feColorMatrix in="blurOut" result="blurOut2" type="matrix" values="0 0 0 0 0 0 0 0 0 0 0 0 0 0 0 0 0 0 .4 0"/><feOffset dx="4.0" dy="4.0" in="blurOut2" result="blurOut3"/><feBlend in="SourceGraphic" in2="blurOut3" mode="normal"/></filter></defs><g><!--MD5=[dfc67d2811e0e5a7552fb581a15d28e4]
entity Public--><ellipse cx="28.5" cy="56.33" fill="#FEFECE" filter="url(#f18wdm83yxxzv7)" rx="8" ry="8" style="stroke:#A80036;stroke-width:1.5;"/><path d="M28.5,64.33 L28.5,91.33 M15.5,72.33 L41.5,72.33 M28.5,91.33 L15.5,106.33 M28.5,91.33 L41.5,106.33 " fill="none" filter="url(#f18wdm83yxxzv7)" style="stroke:#A80036;stroke-width:1.5;"/><text fill="#000000" font-family="sans-serif" font-size="14" lengthAdjust="spacing" textLength="41" x="8" y="125.3652">Public</text><ellipse cx="204.4418" cy="21.5664" fill="#FEFECE" filter="url(#f18wdm83yxxzv7)" rx="65.8318" ry="15.5664" style="stroke:#A80036;stroke-width:1.5;"/><text fill="#000000" font-family="sans-serif" font-size="14" lengthAdjust="spacing" textLength="82" x="160.4418" y="25.5839">Buy number</text><ellipse cx="204.443" cy="87.5666" fill="#FEFECE" filter="url(#f18wdm83yxxzv7)" rx="66.183" ry="15.6366" style="stroke:#A80036;stroke-width:1.5;"/><text fill="#000000" font-family="sans-serif" font-size="14" lengthAdjust="spacing" textLength="83" x="159.943" y="91.5842">View history</text><!--MD5=[97ab183161fd5d1db7fba7485cf76add]
entity Admin--><ellipse cx="28.5" cy="402.33" fill="#FEFECE" filter="url(#f18wdm83yxxzv7)" rx="8" ry="8" style="stroke:#A80036;stroke-width:1.5;"/><path d="M28.5,410.33 L28.5,437.33 M15.5,418.33 L41.5,418.33 M28.5,437.33 L15.5,452.33 M28.5,437.33 L41.5,452.33 " fill="none" filter="url(#f18wdm83yxxzv7)" style="stroke:#A80036;stroke-width:1.5;"/><text fill="#000000" font-family="sans-serif" font-size="14" lengthAdjust="spacing" textLength="45" x="6" y="471.3652">Admin</text><ellipse cx="204.4412" cy="569.5682" fill="#FEFECE" filter="url(#f18wdm83yxxzv7)" rx="66.8912" ry="15.7782" style="stroke:#A80036;stroke-width:1.5;"/><text fill="#000000" font-family="sans-serif" font-size="14" lengthAdjust="spacing" textLength="85" x="158.9412" y="573.5858">Create raffle</text><ellipse cx="204.439" cy="636.5698" fill="#FEFECE" filter="url(#f18wdm83yxxzv7)" rx="70.199" ry="16.4398" style="stroke:#A80036;stroke-width:1.5;"/><text fill="#000000" font-family="sans-serif" font-size="14" lengthAdjust="spacing" textLength="94" x="155.7515" y="640.2947">Remove raffle</text><ellipse cx="204.4417" cy="704.5663" fill="#FEFECE" filter="url(#f18wdm83yxxzv7)" rx="68.3317" ry="16.0663" style="stroke:#A80036;stroke-width:1.5;"/><text fill="#000000" font-family="sans-serif" font-size="14" lengthAdjust="spacing" textLength="89" x="157.1977" y="708.5297">Update raffle</text><ellipse cx="204.4353" cy="504.569" fill="#FEFECE" filter="url(#f18wdm83yxxzv7)" rx="38.3553" ry="14.659" style="stroke:#A80036;stroke-width:1.5;"/><text fill="#000000" font-family="sans-serif" font-size="14" lengthAdjust="spacing" textLength="38" x="185.4353" y="507.86">Login</text><ellipse cx="204.4372" cy="291.5747" fill="#FEFECE" filter="url(#f18wdm83yxxzv7)" rx="45.4472" ry="14.6647" style="stroke:#A80036;stroke-width:1.5;"/><text fill="#000000" font-family="sans-serif" font-size="14" lengthAdjust="spacing" textLength="48" x="179.4968" y="295.1242">Logout</text><ellipse cx="204.4433" cy="224.5687" fill="#FEFECE" filter="url(#f18wdm83yxxzv7)" rx="73.3433" ry="17.0687" style="stroke:#A80036;stroke-width:1.5;"/><text fill="#000000" font-family="sans-serif" font-size="14" lengthAdjust="spacing" textLength="102" x="153.3256" y="227.8922">Verify payment</text><ellipse cx="204.4392" cy="359.5738" fill="#FEFECE" filter="url(#f18wdm83yxxzv7)" rx="77.8692" ry="17.9738" style="stroke:#A80036;stroke-width:1.5;"/><text fill="#000000" font-family="sans-serif" font-size="14" lengthAdjust="spacing" textLength="113" x="147.9392" y="362.8649">Decline payment</text><ellipse cx="204.44" cy="433.568" fill="#FEFECE" filter="url(#f18wdm83yxxzv7)" rx="93.44" ry="21.088" style="stroke:#A80036;stroke-width:1.5;"/><text fill="#000000" font-family="sans-serif" font-size="14" lengthAdjust="spacing" textLength="149" x="129.94" y="436.859">Select winner number</text><ellipse cx="204.4403" cy="155.5681" fill="#FEFECE" filter="url(#f18wdm83yxxzv7)" rx="72.5403" ry="16.9081" style="stroke:#A80036;stroke-width:1.5;"/><text fill="#000000" font-family="sans-serif" font-size="14" lengthAdjust="spacing" textLength="100" x="153.9432" y="158.9941">Filter numbers</text><ellipse cx="431.2161" cy="569.5672" fill="#FEFECE" filter="url(#f18wdm83yxxzv7)" rx="66.5361" ry="15.7072" style="stroke:#A80036;stroke-width:1.5;"/><text fill="#000000" font-family="sans-serif" font-size="14" lengthAdjust="spacing" textLength="84" x="386.2161" y="573.5848">Show raffles</text><ellipse cx="431.2233" cy="155.5687" fill="#FEFECE" filter="url(#f18wdm83yxxzv7)" rx="73.3433" ry="17.0687" style="stroke:#A80036;stroke-width:1.5;"/><text fill="#000000" font-family="sans-serif" font-size="14" lengthAdjust="spacing" textLength="102" x="380.1056" y="158.8922">Show numbers</text><!--MD5=[78532a97db265504b9085a9449524ca5]
link Public to Buy number--><path d="M49.17,79.34 C65.62,72.52 89.74,62.67 111,54.57 C126.89,48.52 144.43,42.18 159.92,36.69 " fill="none" id="Public-to-Buy number" style="stroke:#A80036;stroke-width:1.0;"/><polygon fill="#A80036" points="164.55,35.05,154.7307,34.2874,159.8374,36.7208,157.404,41.8275,164.55,35.05" style="stroke:#A80036;stroke-width:1.0;"/><!--MD5=[5d5641485dd2bf97f02443354bec1986]
link Public to View history--><path d="M49.45,87.57 C69.53,87.57 101.7,87.57 131.45,87.57 " fill="none" id="Public-to-View history" style="stroke:#A80036;stroke-width:1.0;"/><polygon fill="#A80036" points="136.25,87.57,127.25,83.57,131.25,87.57,127.25,91.57,136.25,87.57" style="stroke:#A80036;stroke-width:1.0;"/><!--MD5=[f09ed94cd810abbe51ddb3e68c16b221]
link Admin to Create raffle--><path d="M51.46,470.81 C65.95,492.6 86.73,519.17 111,536.57 C122.75,545 136.87,551.47 150.5,556.35 " fill="none" id="Admin-to-Create raffle" style="stroke:#A80036;stroke-width:1.0;"/><polygon fill="#A80036" points="154.87,557.85,147.6631,551.1373,150.1425,556.2218,145.058,558.7012,154.87,557.85" style="stroke:#A80036;stroke-width:1.0;"/><!--MD5=[e449e85ab390f0858f9b45e0e6c519a3]
link Admin to Remove raffle--><path d="M39.76,474.79 C51.2,512.78 73.25,568.31 111,602.57 C120.99,611.64 133.61,618.35 146.28,623.29 " fill="none" id="Admin-to-Remove raffle" style="stroke:#A80036;stroke-width:1.0;"/><polygon fill="#A80036" points="150.68,624.92,143.6139,618.0593,145.9873,623.1941,140.8525,625.5676,150.68,624.92" style="stroke:#A80036;stroke-width:1.0;"/><!--MD5=[83e81bebfcbb8e0fe62c4450ffa2a1c3]
link Admin to Update raffle--><path d="M32.98,474.74 C39.53,526.95 58.19,616.63 111,670.57 C120.44,680.22 132.84,687.14 145.49,692.12 " fill="none" id="Admin-to-Update raffle" style="stroke:#A80036;stroke-width:1.0;"/><polygon fill="#A80036" points="149.88,693.74,142.8206,686.8723,145.189,692.0095,140.0518,694.3779,149.88,693.74" style="stroke:#A80036;stroke-width:1.0;"/><!--MD5=[387b3728521fa8204e27f46f1fdadbfb]
link Admin to Login--><path d="M51.33,444.85 C67.57,453.04 90.4,464.11 111,472.57 C129.63,480.23 150.84,487.66 168.24,493.43 " fill="none" id="Admin-to-Login" style="stroke:#A80036;stroke-width:1.0;"/><polygon fill="#A80036" points="172.54,494.85,165.2368,488.2422,167.7895,493.2903,162.7413,495.843,172.54,494.85" style="stroke:#A80036;stroke-width:1.0;"/><!--MD5=[4df48810c7fbc0f983f34cf2f6589c01]
link Admin to Logout--><path d="M51.5,393.34 C65.81,370.42 86.38,342.74 111,324.57 C125.41,313.94 143.57,306.47 159.97,301.37 " fill="none" id="Admin-to-Logout" style="stroke:#A80036;stroke-width:1.0;"/><polygon fill="#A80036" points="164.47,300.03,154.7019,298.7714,159.6789,301.4602,156.9902,306.4372,164.47,300.03" style="stroke:#A80036;stroke-width:1.0;"/><!--MD5=[3f0601d123b6d879acd8a105e05759cc]
link Admin to Verify payment--><path d="M39.19,392.35 C50.36,353.28 72.34,295.4 111,259.57 C120.63,250.65 132.75,243.94 145.03,238.91 " fill="none" id="Admin-to-Verify payment" style="stroke:#A80036;stroke-width:1.0;"/><polygon fill="#A80036" points="149.64,237.12,139.8037,236.6235,144.9744,238.9178,142.6801,244.0885,149.64,237.12" style="stroke:#A80036;stroke-width:1.0;"/><!--MD5=[bab55fa1fdc306f889afad32f888f3e8]
link Admin to Decline payment--><path d="M51.41,422.47 C67.68,414.37 90.52,403.33 111,394.57 C125.08,388.55 140.58,382.47 154.8,377.11 " fill="none" id="Admin-to-Decline payment" style="stroke:#A80036;stroke-width:1.0;"/><polygon fill="#A80036" points="159.39,375.39,149.5585,374.8048,154.7084,377.1456,152.3675,382.2954,159.39,375.39" style="stroke:#A80036;stroke-width:1.0;"/><!--MD5=[f90d49961e465b7eb694e3c1fd30b7a4]
link Admin to Select winner number--><path d="M51.18,433.57 C65.13,433.57 84.35,433.57 104.45,433.57 " fill="none" id="Admin-to-Select winner number" style="stroke:#A80036;stroke-width:1.0;"/><polygon fill="#A80036" points="109.2,433.57,100.2,429.57,104.2,433.57,100.2,437.57,109.2,433.57" style="stroke:#A80036;stroke-width:1.0;"/><!--MD5=[2bdcde06a82e6bef21c7bfe5c53a64ea]
link Admin to Filter numbers--><path d="M32.47,392.6 C38.47,339.09 56.57,245.66 111,189.57 C119.8,180.5 131.22,173.84 143.02,168.94 " fill="none" id="Admin-to-Filter numbers" style="stroke:#A80036;stroke-width:1.0;"/><polygon fill="#A80036" points="147.43,167.23,137.5919,166.7698,142.7711,169.045,140.4959,174.2241,147.43,167.23" style="stroke:#A80036;stroke-width:1.0;"/><!--MD5=[d568c18de222cd51154ff68698f685ed]
link Public to Filter numbers--><path d="M49.21,95.7 C65.69,102.46 89.82,112.28 111,120.57 C126.52,126.65 143.56,133.15 158.75,138.89 " fill="none" id="Public-to-Filter numbers" style="stroke:#A80036;stroke-width:1.0;"/><polygon fill="#A80036" points="163.27,140.59,156.273,133.6588,158.5948,138.8172,153.4365,141.139,163.27,140.59" style="stroke:#A80036;stroke-width:1.0;"/><!--MD5=[db2383a3c3d41715e24b4795677c71c4]
link Create raffle to Show raffles--><path d="M271.67,569.57 C298.88,569.57 330.46,569.57 358.24,569.57 " fill="none" id="Create raffle-to-Show raffles" style="stroke:#A80036;stroke-width:1.0;stroke-dasharray:7.0,7.0;"/><polygon fill="#A80036" points="362.96,569.57,353.96,565.57,357.96,569.57,353.96,573.57,362.96,569.57" style="stroke:#A80036;stroke-width:1.0;"/><!--MD5=[d382107b71d43e2585b5af006d83d7c1]
link Update raffle to Show raffles--><path d="M248.02,691.9 C264.11,686.35 282.29,679.13 297.88,670.57 C340.16,647.36 383.55,611.49 408.64,589.33 " fill="none" id="Update raffle-to-Show raffles" style="stroke:#A80036;stroke-width:1.0;stroke-dasharray:7.0,7.0;"/><polygon fill="#A80036" points="412.28,586.1,402.8966,589.0919,408.5437,589.4227,408.2129,595.0699,412.28,586.1" style="stroke:#A80036;stroke-width:1.0;"/><!--MD5=[fd363504d263f4d5d4ff524aaefcd457]
link Remove raffle to Show raffles--><path d="M249.31,623.5 C287.64,612.07 343.15,595.53 382.56,583.78 " fill="none" id="Remove raffle-to-Show raffles" style="stroke:#A80036;stroke-width:1.0;stroke-dasharray:7.0,7.0;"/><polygon fill="#A80036" points="387.29,582.37,377.5229,581.1035,382.4977,583.7963,379.8049,588.7711,387.29,582.37" style="stroke:#A80036;stroke-width:1.0;"/><!--MD5=[567fd705ceb023f6bc41762e4ec83d3f]
link Login to Show raffles--><path d="M235.76,513.34 C273.18,524.16 337.31,542.71 381.63,555.52 " fill="none" id="Login-to-Show raffles" style="stroke:#A80036;stroke-width:1.0;stroke-dasharray:7.0,7.0;"/><polygon fill="#A80036" points="386.3,556.87,378.7626,550.5307,381.4962,555.4832,376.5437,558.2168,386.3,556.87" style="stroke:#A80036;stroke-width:1.0;"/><!--MD5=[99e76de130adfd02c47f8c5e7a311afd]
link View history to Show raffles--><path d="M256.92,97.26 C271.84,102.31 287.01,109.97 297.88,121.57 C416.32,248 429.25,475.36 430.28,547.19 " fill="none" id="View history-to-Show raffles" style="stroke:#A80036;stroke-width:1.0;stroke-dasharray:7.0,7.0;"/><polygon fill="#A80036" points="430.33,552.13,434.2527,543.096,430.2871,547.1302,426.253,543.1646,430.33,552.13" style="stroke:#A80036;stroke-width:1.0;"/><!--MD5=[a424237355b2ee6b446bf6d97f0fe2a6]
link Buy number to Show numbers--><path d="M247.57,33.56 C263.78,38.95 282.16,46.04 297.88,54.57 C339.55,77.2 382.17,112.31 407.4,134.6 " fill="none" id="Buy number-to-Show numbers" style="stroke:#A80036;stroke-width:1.0;stroke-dasharray:7.0,7.0;"/><polygon fill="#A80036" points="411.08,137.88,407.0299,128.9024,407.3501,134.5502,401.7023,134.8703,411.08,137.88" style="stroke:#A80036;stroke-width:1.0;"/><!--MD5=[d70f12d1cafeddec9bc9f184c14b7f6f]
link Filter numbers to Show numbers--><path d="M277.18,155.57 C300.77,155.57 327.12,155.57 351.22,155.57 " fill="none" id="Filter numbers-to-Show numbers" style="stroke:#A80036;stroke-width:1.0;stroke-dasharray:7.0,7.0;"/><polygon fill="#A80036" points="356.11,155.57,347.11,151.57,351.11,155.57,347.11,159.57,356.11,155.57" style="stroke:#A80036;stroke-width:1.0;"/><!--MD5=[8a3657798431881dc61672accdff5813]
link Verify payment to Show numbers--><path d="M250.12,210.86 C287.43,199.41 340.61,183.08 379.51,171.14 " fill="none" id="Verify payment-to-Show numbers" style="stroke:#A80036;stroke-width:1.0;stroke-dasharray:7.0,7.0;"/><polygon fill="#A80036" points="384.18,169.71,374.4019,168.5316,379.4008,171.1794,376.753,176.1783,384.18,169.71" style="stroke:#A80036;stroke-width:1.0;"/><!--MD5=[e0ca440f695d012bdff84b6ee8059ba9]
@startuml UseCase 

left to right direction
Public - -> (Buy number)
Public - -> (View history)


Admin - -> (Create raffle)
Admin - -> (Remove raffle)
Admin - -> (Update raffle)
Admin - -> (Login)
Admin - -> (Logout)
Admin - -> (Verify payment)
Admin - -> (Decline payment)
Admin - -> (Select winner number)

Admin - -> (Filter numbers)
Public - -> (Filter numbers)


(Create raffle) ..> (Show raffles)
(Update raffle) ..> (Show raffles)
(Remove raffle) ..> (Show raffles)
(Login) ..> (Show raffles)
(View history) ..> (Show raffles)


(Buy number) ..> (Show numbers)
(Filter numbers) ..> (Show numbers)
(Verify payment) ..> (Show numbers)

@enduml

PlantUML version 1.2021.00(Sun Jan 10 06:25:05 VET 2021)
(MIT source distribution)
Java Runtime: Java(TM) SE Runtime Environment
JVM: Java HotSpot(TM) 64-Bit Server VM
Default Encoding: UTF-8
Language: es
Country: VE
--></g></svg>